<?xml version="1.0" encoding="utf-8"?>
<!-- Generator: Adobe Illustrator 23.0.4, SVG Export Plug-In . SVG Version: 6.00 Build 0)  -->
<svg version="1.1" xmlns="http://www.w3.org/2000/svg" xmlns:xlink="http://www.w3.org/1999/xlink" x="0px" y="0px"
	 viewBox="0 0 968 88" enable-background="new 0 0 968 88" xml:space="preserve">
<g id="Box" display="none">
	<rect x="924" display="inline" fill="#FFFFFF" stroke="#000000" stroke-miterlimit="10" width="44" height="44"/>
</g>
<g id="Layer_1">
	<g id="bg" display="none">
		<rect display="inline" fill="#8C8C8C" width="484" height="88"/>
	</g>
	<g id="unused" display="none">
		<g display="inline">
			<rect x="143.991" y="59.979" width="18" height="12"/>
			<polygon points="140,56 140,58 140,62 142,62 142,58 146,58 146,56 			"/>
			<polygon points="166,56 164,56 160,56 160,58 164,58 164,62 166,62 			"/>
			<polygon points="166,76 166,74 166,70 164,70 164,74 160,74 160,76 			"/>
			<polygon points="140,76 142,76 146,76 146,74 142,74 142,70 140,70 			"/>
		</g>
		<g display="inline">
			<rect x="143.991" y="15.978" fill="#C9C9C9" width="18" height="12"/>
			<polygon fill="#C9C9C9" points="140,12 140,14 140,18 142,18 142,14 146,14 146,12 			"/>
			<polygon fill="#C9C9C9" points="166,12 164,12 160,12 160,14 164,14 164,18 166,18 			"/>
			<polygon fill="#C9C9C9" points="166,32 166,30 166,26 164,26 164,30 160,30 160,32 			"/>
			<polygon fill="#C9C9C9" points="140,32 142,32 146,32 146,30 142,30 142,26 140,26 			"/>
		</g>
	</g>
	<g id="guides_1_">
	</g>
	<g>
		<rect x="60" y="58" width="4" height="16"/>
		<rect x="66" y="58" width="4" height="16"/>
	</g>
	<g>
		
			<line fill="none" stroke="#000000" stroke-width="4" stroke-linecap="round" stroke-miterlimit="10" x1="368" y1="60" x2="380" y2="72"/>
		
			<line fill="none" stroke="#000000" stroke-width="4" stroke-linecap="round" stroke-miterlimit="10" x1="368" y1="72" x2="380" y2="60"/>
	</g>
	<g>
		
			<line fill="none" stroke="#000000" stroke-width="4" stroke-linecap="round" stroke-miterlimit="10" x1="455" y1="59" x2="469" y2="73"/>
		
			<line fill="none" stroke="#000000" stroke-width="4" stroke-linecap="round" stroke-miterlimit="10" x1="455" y1="73" x2="469" y2="59"/>
	</g>
	<g>
		<circle fill="none" stroke="#000000" stroke-width="4" stroke-linecap="round" stroke-miterlimit="10" cx="330" cy="66" r="10"/>
		
			<line fill="none" stroke="#000000" stroke-width="4" stroke-linecap="round" stroke-miterlimit="10" x1="323" y1="73" x2="337" y2="59"/>
	</g>
	
		<polygon fill="#C9C9C9" stroke="#C9C9C9" stroke-width="2" stroke-linecap="round" stroke-linejoin="round" stroke-miterlimit="10" points="
		102.82,13 108.634,18.814 101.242,26.207 103.75,28.714 111.143,21.322 117.007,27.187 117.007,13 	"/>
	<polygon stroke="#000000" stroke-width="2" stroke-linecap="round" stroke-linejoin="round" stroke-miterlimit="10" points="
		102.82,57 108.634,62.815 101.242,70.207 103.75,72.714 111.143,65.322 117.007,71.188 117.007,57 	"/>
	<g>
		<rect x="60" y="14" fill="#C9C9C9" width="4" height="16"/>
		<rect x="66" y="14" fill="#C9C9C9" width="4" height="16"/>
	</g>
	
		<polygon fill="#C9C9C9" stroke="#C9C9C9" stroke-width="2" stroke-linecap="round" stroke-linejoin="round" stroke-miterlimit="10" points="
		17,12 27,22 17,32 	"/>
	<polygon stroke="#000000" stroke-width="2" stroke-linecap="round" stroke-linejoin="round" stroke-miterlimit="10" points="17,56 
		27,66 17,76 	"/>
	
		<polygon fill="#C9C9C9" stroke="#C9C9C9" stroke-width="2" stroke-linecap="round" stroke-linejoin="round" stroke-miterlimit="10" points="
		412,12 422,22 412,32 	"/>
	
		<polygon fill="#E3E700" stroke="#E3E700" stroke-width="2" stroke-linecap="round" stroke-linejoin="round" stroke-miterlimit="10" points="
		412,56 422,66 412,76 	"/>
	<g>
		
			<line fill="none" stroke="#C9C9C9" stroke-width="4" stroke-linecap="round" stroke-miterlimit="10" x1="368" y1="16" x2="380" y2="28"/>
		
			<line fill="none" stroke="#C9C9C9" stroke-width="4" stroke-linecap="round" stroke-miterlimit="10" x1="368" y1="28" x2="380" y2="16"/>
	</g>
	<g>
		
			<line fill="none" stroke="#C9C9C9" stroke-width="4" stroke-linecap="round" stroke-miterlimit="10" x1="455" y1="15" x2="469" y2="29"/>
		
			<line fill="none" stroke="#C9C9C9" stroke-width="4" stroke-linecap="round" stroke-miterlimit="10" x1="455" y1="29" x2="469" y2="15"/>
	</g>
	<g>
		<circle fill="none" stroke="#C9C9C9" stroke-width="4" stroke-linecap="round" stroke-miterlimit="10" cx="330" cy="22" r="10"/>
		
			<line fill="none" stroke="#C9C9C9" stroke-width="4" stroke-linecap="round" stroke-miterlimit="10" x1="323" y1="29" x2="337" y2="15"/>
	</g>
	<g>
		<path fill="none" stroke="#000000" stroke-width="3" stroke-miterlimit="10" d="M236,63.6v-3.201c0-3.533,2.687-6.398,6-6.398l0,0
			c3.313,0,6,2.865,6,6.398V63.6"/>
		<path d="M248,63h-12c-1.657,0-3,1.344-3,3v8c0,1.658,1.343,3,3,3h12c1.656,0,3-1.342,3-3v-8C251,64.343,249.657,63,248,63z
			 M244,72h-4v-4h4V72z"/>
	</g>
	<g>
		<path fill="none" stroke="#000000" stroke-width="3" stroke-miterlimit="10" d="M298,63.6v-3.201c0-3.533-2.688-6.398-6-6.398l0,0
			c-3.312,0-6,2.865-6,6.398V63.6"/>
		<path d="M286,63h-12c-1.658,0-3,1.344-3,3v8c0,1.658,1.342,3,3,3h12c1.656,0,3-1.342,3-3v-8C289,64.343,287.657,63,286,63z
			 M282,72h-4v-4h4V72z"/>
	</g>
	<g>
		<path fill="none" stroke="#C9C9C9" stroke-width="3" stroke-miterlimit="10" d="M298,19.601V16.4c0-3.535-2.688-6.4-6-6.4l0,0
			c-3.312,0-6,2.865-6,6.4v3.201"/>
		<path fill="#C9C9C9" d="M286,19h-12c-1.658,0-3,1.343-3,3v8c0,1.657,1.342,3,3,3h12c1.656,0,3-1.343,3-3v-8
			C289,20.344,287.657,19,286,19z M282,28h-4v-4h4V28z"/>
	</g>
	<g>
		<path fill="none" stroke="#C9C9C9" stroke-width="3" stroke-miterlimit="10" d="M236,19.6v-3.201c0-3.535,2.687-6.4,6-6.4l0,0
			c3.313,0,6,2.865,6,6.4V19.6"/>
		<path fill="#C9C9C9" d="M248,19h-12c-1.657,0-3,1.343-3,3v8c0,1.657,1.343,3,3,3h12c1.656,0,3-1.343,3-3v-8
			C251,20.343,249.657,19,248,19z M244,28h-4v-4h4V28z"/>
	</g>
	<path d="M207.754,65.46l3.23-1.938l-1.787-4.539l-3.684,0.785c-0.312-0.375-0.649-0.723-1.009-1.043l0.915-3.656l-4.473-1.944
		l-2.055,3.166c-0.476-0.043-0.958-0.051-1.441-0.024l-1.942-3.238l-4.539,1.789l0.79,3.703c-0.37,0.309-0.713,0.641-1.028,0.994
		l-3.674-0.919l-1.945,4.474l3.182,2.063c-0.042,0.472-0.052,0.945-0.024,1.423l-3.254,1.95l1.788,4.539l3.711-0.791
		c0.305,0.369,0.636,0.709,0.987,1.022l-0.92,3.683l4.472,1.944l2.063-3.178c0.473,0.043,0.949,0.053,1.429,0.027L200.492,79
		l4.54-1.787l-0.788-3.693c0.372-0.309,0.72-0.645,1.038-1l3.662,0.916l1.946-4.473l-3.162-2.051
		C207.773,66.432,207.781,65.945,207.754,65.46z M199.944,70.953c-2.728,1.074-5.808-0.266-6.883-2.994
		c-1.074-2.727,0.267-5.807,2.996-6.881c2.727-1.074,5.807,0.266,6.882,2.992C204.013,66.798,202.672,69.878,199.944,70.953z"/>
	<path fill="#C9C9C9" d="M207.754,21.476l3.23-1.938L209.198,15l-3.684,0.784c-0.312-0.374-0.649-0.722-1.009-1.042l0.915-3.656
		l-4.473-1.946l-2.055,3.167c-0.476-0.044-0.958-0.052-1.441-0.025l-1.942-3.238l-4.539,1.788l0.79,3.703
		c-0.37,0.308-0.713,0.64-1.028,0.995l-3.674-0.919l-1.945,4.473l3.182,2.065c-0.042,0.47-0.052,0.945-0.024,1.421l-3.254,1.952
		l1.788,4.539l3.711-0.791c0.305,0.368,0.636,0.708,0.987,1.023l-0.92,3.681l4.472,1.946l2.063-3.178
		c0.473,0.043,0.949,0.053,1.429,0.027l1.947,3.247l4.54-1.788l-0.788-3.693c0.372-0.309,0.72-0.644,1.038-1.001l3.662,0.917
		l1.946-4.473l-3.162-2.051C207.773,22.446,207.781,21.961,207.754,21.476z M199.944,26.968c-2.728,1.074-5.808-0.266-6.883-2.994
		c-1.074-2.727,0.267-5.807,2.996-6.882c2.727-1.074,5.807,0.266,6.882,2.994C204.013,22.813,202.672,25.893,199.944,26.968z"/>
	<path d="M194.978,66.19"/>
	<g>
		
			<line fill="none" stroke="#C9C9C9" stroke-width="3" stroke-linecap="round" stroke-linejoin="round" stroke-miterlimit="10" x1="147" y1="22" x2="161" y2="22"/>
		
			<line fill="none" stroke="#C9C9C9" stroke-width="3" stroke-linecap="round" stroke-linejoin="round" stroke-miterlimit="10" x1="147" y1="28" x2="161" y2="28"/>
		
			<line fill="none" stroke="#C9C9C9" stroke-width="3" stroke-linecap="round" stroke-linejoin="round" stroke-miterlimit="10" x1="147" y1="16" x2="161" y2="16"/>
	</g>
	<g>
		
			<line fill="none" stroke="#000000" stroke-width="3" stroke-linecap="round" stroke-linejoin="round" stroke-miterlimit="10" x1="147" y1="66" x2="161" y2="66"/>
		
			<line fill="none" stroke="#000000" stroke-width="3" stroke-linecap="round" stroke-linejoin="round" stroke-miterlimit="10" x1="147" y1="72" x2="161" y2="72"/>
		
			<line fill="none" stroke="#000000" stroke-width="3" stroke-linecap="round" stroke-linejoin="round" stroke-miterlimit="10" x1="147" y1="60" x2="161" y2="60"/>
	</g>
	<path d="M513,12.074c0-1.147-0.93-2.074-2.076-2.074h-9.852c-1.146,0-2.072,0.928-2.072,2.074v21.778
		c0,1.146,0.928,2.074,2.072,2.074h9.852c1.147,0,2.076-0.928,2.076-2.074V12.074z M504.971,12.333h2.074
		c0.144,0,0.258,0.116,0.258,0.259c0,0.144-0.114,0.26-0.258,0.26h-2.074c-0.143,0-0.26-0.116-0.26-0.26
		C504.711,12.449,504.829,12.333,504.971,12.333z M505.92,34.698c-0.57,0-1.037-0.464-1.037-1.037c0-0.573,0.467-1.037,1.037-1.037
		c0.574,0,1.039,0.464,1.039,1.037C506.959,34.234,506.495,34.698,505.92,34.698z M511.704,31.778h-11.408v-17.37h11.408V31.778z"/>
	<g>
		<g>
			
				<line fill="none" stroke="#C9C9C9" stroke-width="3" stroke-linecap="round" stroke-linejoin="round" stroke-miterlimit="10" x1="589.5" y1="22" x2="600" y2="22"/>
			
				<line fill="none" stroke="#C9C9C9" stroke-width="3" stroke-linecap="round" stroke-linejoin="round" stroke-miterlimit="10" x1="589.5" y1="28" x2="600" y2="28"/>
			
				<line fill="none" stroke="#C9C9C9" stroke-width="3" stroke-linecap="round" stroke-linejoin="round" stroke-miterlimit="10" x1="589.5" y1="16" x2="600" y2="16"/>
		</g>
		<g>
			
				<line fill="none" stroke="#C9C9C9" stroke-width="3" stroke-linecap="round" stroke-linejoin="round" stroke-miterlimit="10" x1="584.555" y1="22" x2="585.477" y2="22"/>
			
				<line fill="none" stroke="#C9C9C9" stroke-width="3" stroke-linecap="round" stroke-linejoin="round" stroke-miterlimit="10" x1="584.555" y1="28" x2="585.477" y2="28"/>
			
				<line fill="none" stroke="#C9C9C9" stroke-width="3" stroke-linecap="round" stroke-linejoin="round" stroke-miterlimit="10" x1="584.555" y1="16" x2="585.477" y2="16"/>
		</g>
	</g>
	<g>
		<g>
			
				<line fill="none" stroke="#000000" stroke-width="3" stroke-linecap="round" stroke-linejoin="round" stroke-miterlimit="10" x1="589.5" y1="66" x2="600" y2="66"/>
			
				<line fill="none" stroke="#000000" stroke-width="3" stroke-linecap="round" stroke-linejoin="round" stroke-miterlimit="10" x1="589.5" y1="72" x2="600" y2="72"/>
			
				<line fill="none" stroke="#000000" stroke-width="3" stroke-linecap="round" stroke-linejoin="round" stroke-miterlimit="10" x1="589.5" y1="60" x2="600" y2="60"/>
		</g>
		<g>
			
				<line fill="none" stroke="#000000" stroke-width="3" stroke-linecap="round" stroke-linejoin="round" stroke-miterlimit="10" x1="584.555" y1="66" x2="585.477" y2="66"/>
			
				<line fill="none" stroke="#000000" stroke-width="3" stroke-linecap="round" stroke-linejoin="round" stroke-miterlimit="10" x1="584.555" y1="72" x2="585.477" y2="72"/>
			
				<line fill="none" stroke="#000000" stroke-width="3" stroke-linecap="round" stroke-linejoin="round" stroke-miterlimit="10" x1="584.555" y1="60" x2="585.477" y2="60"/>
		</g>
	</g>
	<g>
		<path fill="#C9C9C9" d="M561,9v7.231h-0.709c-0.42-1.668-0.886-2.867-1.398-3.596c-0.515-0.729-1.215-1.311-2.108-1.744
			c-0.501-0.236-1.374-0.354-2.622-0.354h-1.99v20.612c0,1.367,0.077,2.22,0.227,2.562c0.152,0.341,0.446,0.64,0.889,0.895
			c0.439,0.257,1.04,0.385,1.803,0.385h0.886v0.729h-13.989v-0.729h0.885c0.776,0,1.4-0.139,1.872-0.413
			c0.343-0.185,0.61-0.5,0.81-0.947c0.145-0.315,0.215-1.142,0.215-2.482V10.537h-1.93c-1.801,0-3.108,0.381-3.923,1.144
			c-1.142,1.062-1.866,2.58-2.167,4.551H537V9H561z"/>
	</g>
	<g>
		<path d="M561,53v7.231h-0.709c-0.42-1.668-0.886-2.867-1.398-3.596c-0.515-0.729-1.215-1.31-2.108-1.744
			c-0.501-0.236-1.374-0.354-2.622-0.354h-1.99v20.611c0,1.367,0.077,2.221,0.227,2.562c0.152,0.342,0.446,0.641,0.889,0.896
			c0.439,0.257,1.04,0.386,1.803,0.386h0.886v0.729h-13.989v-0.729h0.885c0.776,0,1.4-0.139,1.872-0.414
			c0.343-0.184,0.61-0.5,0.81-0.947c0.145-0.315,0.215-1.143,0.215-2.483V54.537h-1.93c-1.801,0-3.108,0.382-3.923,1.144
			c-1.142,1.062-1.866,2.58-2.167,4.551H537V53H561z"/>
	</g>
	<path fill="#C9C9C9" d="M622,22.141v-3.7c0-0.7,0.3-1.3,0.8-1.8s1.1-0.7,1.7-0.7h8.1c2.8-0.2,5.5-0.8,8.2-1.9s5-2.7,6.9-4.6
		c0.7,0,1.3,0.3,1.8,0.8s0.7,1.1,0.7,1.7v6c0.5,0.2,1,0.5,1.3,0.9c0.4,0.5,0.5,0.9,0.5,1.5s-0.2,1.1-0.6,1.5
		c-0.3,0.4-0.8,0.7-1.3,0.8v6c0,0.7-0.3,1.3-0.8,1.8s-1,0.7-1.7,0.7c-4.1-3.7-8.6-5.8-13.5-6.3c-1.3,0.7-1.9,1.9-1.6,3.8
		c0.3,1.9,1,3.3,2.3,4.3c-0.5,0.9-1.5,1.5-2.9,1.6c-1.4,0.1-2.4-0.2-3.2-0.9c-0.3-0.9-0.6-1.7-0.7-2.3c-0.2-0.6-0.3-1.3-0.5-2.1
		c-0.2-0.8-0.2-1.6-0.2-2.3c0-0.7,0.1-1.5,0.3-2.2h-3.2c-0.7,0-1.3-0.3-1.8-0.8S622,22.841,622,22.141L622,22.141z M635.1,22.441
		c4.8,0.9,9,2.7,12.6,5.5v-15.2c-4.1,3-8.3,4.8-12.6,5.4V22.441L635.1,22.441z"/>
	<path d="M622,66.141v-3.7c0-0.7,0.3-1.3,0.8-1.8s1.1-0.7,1.7-0.7h8.1c2.8-0.2,5.5-0.8,8.2-1.9c2.7-1.1,5-2.7,6.9-4.6
		c0.7,0,1.3,0.3,1.8,0.8s0.7,1.1,0.7,1.7v6c0.5,0.2,1,0.5,1.3,0.9c0.3,0.4,0.5,0.9,0.5,1.5c0,0.6-0.2,1.1-0.6,1.5
		c-0.3,0.4-0.8,0.7-1.3,0.8v6c0,0.7-0.3,1.3-0.8,1.8s-1,0.7-1.7,0.7c-4.1-3.7-8.6-5.8-13.5-6.3c-1.3,0.7-1.9,1.9-1.6,3.8
		c0.3,1.9,1,3.3,2.3,4.3c-0.5,0.9-1.5,1.5-2.9,1.6c-1.4,0.1-2.4-0.2-3.2-0.9c-0.3-0.9-0.6-1.7-0.7-2.3c-0.1-0.6-0.3-1.3-0.5-2.1
		c-0.2-0.8-0.2-1.6-0.2-2.3c0-0.7,0.1-1.5,0.3-2.2h-3.2c-0.7,0-1.3-0.3-1.8-0.8S622,66.841,622,66.141L622,66.141z M635.1,66.441
		c4.8,0.9,9,2.7,12.6,5.5v-15.2c-4.1,3-8.3,4.8-12.6,5.4V66.441L635.1,66.441z"/>
	<path d="M512.6,54.95h-15.2c-8.3,0-8.3,2.4-8.3,8.2v5.7c0,5.5,1.2,8.2,8.3,8.2h15.2c6.4,0,8.3-1.5,8.3-8.2v-5.7
		C520.9,56.95,520.6,54.95,512.6,54.95z M501.7,70.25v-8.9l8.6,4.5L501.7,70.25z"/>
	<g>
		
			<line fill="none" stroke="#C9C9C9" stroke-width="4" stroke-linecap="round" stroke-miterlimit="10" x1="682" y1="13.515" x2="682" y2="30.485"/>
		
			<line fill="none" stroke="#C9C9C9" stroke-width="4" stroke-linecap="round" stroke-miterlimit="10" x1="673.515" y1="22" x2="690.485" y2="22"/>
	</g>
	
		<line fill="none" stroke="#C9C9C9" stroke-width="4" stroke-linecap="round" stroke-miterlimit="10" x1="717.515" y1="22" x2="734.485" y2="22"/>
	
		<line fill="none" stroke="#000000" stroke-width="4" stroke-linecap="round" stroke-miterlimit="10" x1="734.485" y1="66" x2="717.515" y2="66"/>
	<g>
		
			<line fill="none" stroke="#000000" stroke-width="4" stroke-linecap="round" stroke-miterlimit="10" x1="682" y1="57.515" x2="682" y2="74.485"/>
		
			<line fill="none" stroke="#000000" stroke-width="4" stroke-linecap="round" stroke-miterlimit="10" x1="673.515" y1="66" x2="690.485" y2="66"/>
	</g>
	<path fill="#C9C9C9" d="M784.61,13.567c-0.52-0.52-1.364-0.52-1.884,0l-8.835,8.835c-1.186,1.186-3.106,1.186-4.293,0
		c-1.184-1.184-1.184-3.109,0-4.293l8.835-8.835c0.52-0.52,0.52-1.364,0-1.884c-0.52-0.52-1.364-0.52-1.884,0l-8.835,8.835
		c-1.898,1.898-2.174,4.812-0.83,7.006l-8.565,8.565c-0.88-0.231-1.855-0.002-2.544,0.687c-1.033,1.033-1.033,2.708,0,3.741
		c1.033,1.033,2.708,1.033,3.741,0c0.689-0.689,0.918-1.665,0.687-2.544l8.564-8.564c2.176,1.338,5.09,1.087,7.008-0.831
		l8.835-8.835C785.13,14.931,785.13,14.087,784.61,13.567z"/>
	<path d="M784.61,57.567c-0.52-0.52-1.364-0.52-1.884,0l-8.835,8.835c-1.186,1.186-3.106,1.186-4.293,0
		c-1.184-1.184-1.184-3.109,0-4.293l8.835-8.835c0.52-0.52,0.52-1.364,0-1.884c-0.52-0.52-1.364-0.52-1.884,0l-8.835,8.835
		c-1.898,1.898-2.174,4.812-0.83,7.006l-8.565,8.565c-0.88-0.231-1.855-0.002-2.544,0.687c-1.033,1.033-1.033,2.708,0,3.741
		c1.033,1.033,2.708,1.033,3.741,0c0.689-0.689,0.918-1.665,0.687-2.544l8.564-8.564c2.176,1.338,5.09,1.087,7.008-0.831
		l8.835-8.835C785.13,58.931,785.13,58.087,784.61,57.567z"/>
	<g>
		
			<line fill="none" stroke="#000000" stroke-width="4" stroke-linecap="round" stroke-miterlimit="10" x1="809" y1="73.5" x2="804" y2="68.5"/>
		
			<line fill="none" stroke="#000000" stroke-width="4" stroke-linecap="round" stroke-miterlimit="10" x1="809" y1="73.5" x2="824" y2="58.5"/>
	</g>
	<g>
		
			<line fill="none" stroke="#C9C9C9" stroke-width="4" stroke-linecap="round" stroke-miterlimit="10" x1="809" y1="29.5" x2="804" y2="24.5"/>
		
			<line fill="none" stroke="#C9C9C9" stroke-width="4" stroke-linecap="round" stroke-miterlimit="10" x1="809" y1="29.5" x2="824" y2="14.5"/>
	</g>
</g>
</svg>
